# xmcd
#
# Track frame offsets:
#	150
#	9866
#	26273
#	41345
#	54800
#	67348
#	83784
#	94934
#	107281
#	128699
#	136967
#	155764
#	165538
#
# Disc length: 2383 seconds
#
# Revision: 1
# Processed by: cddbd v1.5.2PL0 Copyright (c) Steve Scherf et al.
# Submitted via: audiograbber 1.83.01
#
DISCID=95094d0d
DTITLE=Die Mimmi's - Fun Punks not dead
DYEAR=2014
DGENRE=Punk
TTITLE0=Fun Punks not dead
TTITLE1=Nichts zu verlieren
TTITLE2=Licht aus euren Ärschen
TTITLE3=Musetot
TTITLE4=Halt doch mal die Fresse
TTITLE5=Wir segeln nach Helgoland
TTITLE6=All Cooks are Bastards
TTITLE7=Wie kann die Polizei
TTITLE8=I walked with a Zombie (Ich ging mit nem Zombie)
TTITLE9=Ichh mach jetzt Punk
TTITLE10=POlonaise Blankenese (Punker Polonaise)
TTITLE11=Rucki Zucki (Pogo Zucki)
TTITLE12=Wir sind Punkrock
EXTD=
EXTT0=
EXTT1=
EXTT2=
EXTT3=
EXTT4=
EXTT5=
EXTT6=
EXTT7=
EXTT8=
EXTT9=
EXTT10=
EXTT11=
EXTT12=
PLAYORDER=
